HIERARCHY
ROOT Hips
{
	OFFSET -0.179506 -22.333345 2.821913
	CHANNELS 6 Xposition Yposition Zposition Zrotation Yrotation Xrotation 
	JOINT LeftUpLeg
	{
		OFFSET 6.951974 -9.140623 -0.681533
		CHANNELS 3 Zrotation Yrotation Xrotation
		JOINT LeftLeg
		{
			OFFSET 3.427654 -37.519855 -0.449580
			CHANNELS 3 Zrotation Yrotation Xrotation
			JOINT LeftFoot
			{
				OFFSET -1.359570 -39.796059 -4.369333
				CHANNELS 3 Zrotation Yrotation Xrotation
				JOINT LeftToe
				{
					OFFSET 2.635814 -5.579078 11.928840
					CHANNELS 3 Zrotation Yrotation Xrotation
					End Site
					{
						OFFSET 0.000000 0.000000 0.000000
					}
				}
			}
		}
	}
	JOINT RightUpLeg
	{
		OFFSET -6.767048 -9.052170 -0.431982
		CHANNELS 3 Zrotation Yrotation Xrotation
		JOINT RightLeg
		{
			OFFSET -3.829005 -38.256897 -0.885003
			CHANNELS 3 Zrotation Yrotation Xrotation
			JOINT RightFoot
			{
				OFFSET 1.577377 -39.841461 -4.231180
				CHANNELS 3 Zrotation Yrotation Xrotation
				JOINT RightToe
				{
					OFFSET -2.537174 -4.814398 12.334795
					CHANNELS 3 Zrotation Yrotation Xrotation
					End Site
					{
						OFFSET 0.000000 0.000000 0.000000
					}
				}
			}
		}
	}
	JOINT Spine
	{
		OFFSET -0.253288 10.896323 -2.669631
		CHANNELS 3 Zrotation Yrotation Xrotation
		JOINT Spine1
		{
			OFFSET 0.548704 13.518043 0.109247
			CHANNELS 3 Zrotation Yrotation Xrotation
			JOINT Spine2
			{
				OFFSET 0.145701 5.292222 2.542457
				CHANNELS 3 Zrotation Yrotation Xrotation
				JOINT Neck
				{
					OFFSET -0.277840 21.387037 -4.285703
					CHANNELS 3 Zrotation Yrotation Xrotation
					JOINT Head
					{
						OFFSET 0.515184 6.496960 5.134897
						CHANNELS 3 Zrotation Yrotation Xrotation
						End Site
						{
							OFFSET 0.000000 0.000000 0.000000
						}
					}
				}
				JOINT LeftShoulder
				{
					OFFSET 7.884473 12.174932 -3.408961
					CHANNELS 3 Zrotation Yrotation Xrotation
					JOINT LeftArm
					{
						OFFSET 9.097692 3.046888 -0.886815
						CHANNELS 3 Zrotation Yrotation Xrotation
						JOINT LeftForeArm
						{
							OFFSET 25.961220 -1.277207 -2.745643
							CHANNELS 3 Zrotation Yrotation Xrotation
							JOINT LeftHand
							{
								OFFSET 24.923361 0.898606 -0.117091
								CHANNELS 3 Zrotation Yrotation Xrotation
								End Site
								{
									OFFSET 0.000000 0.000000 0.000000
								}
							}
						}
					}
				}
				JOINT RightShoulder
				{
					OFFSET -8.175920 11.883285 -3.861528
					CHANNELS 3 Zrotation Yrotation Xrotation
					JOINT RightArm
					{
						OFFSET -9.601238 3.255117 -0.914307
						CHANNELS 3 Zrotation Yrotation Xrotation
						JOINT RightForeArm
						{
							OFFSET -25.374195 -1.332924 -2.140099
							CHANNELS 3 Zrotation Yrotation Xrotation
							JOINT RightHand
							{
								OFFSET -25.529810 0.777228 -0.555919
								CHANNELS 3 Zrotation Yrotation Xrotation
								End Site
								{
									OFFSET 0.000000 0.000000 0.000000
								}
							}
						}
					}
				}
			}
		}
	}
}
MOTION
Frames: 12
Frame Time: 0.033333
-264.159454 -282.446686 101.858894 142.574700 -0.298475 91.621447 2.676031 2.165887 5.623071 -1.302601 -3.644849 -3.991089 1.913878 12.797449 -6.768969 nan nan nan -0.720442 -2.688281 4.221867 5.470231 1.253825 -1.242686 4.349213 -4.084615 6.834638 nan nan nan -1.899260 2.135517 -1.195996 2.785123 -3.897798 10.222651 -0.370486 -0.251518 -1.931111 -0.182429 3.435104 3.478918 2.143981 0.315616 -3.658689 -25.568852 0.847143 1.937546 -63.289474 -5.843679 17.259442 13.532761 -26.035771 -16.086924 5.229013 -18.182224 -16.019628 23.416000 1.549846 1.373596 64.468894 -0.890930 8.742160 -16.177776 27.533834 -29.771399 -6.933276 12.430340 -32.052016 
-264.140808 -282.400787 101.785805 142.464379 -0.514759 92.075913 2.434247 2.016720 5.098040 -1.359308 -3.521279 -3.802081 2.020726 12.827360 -6.839573 nan nan nan -1.064486 -2.650946 3.825494 5.466475 1.117754 -1.198178 4.592461 -4.156801 7.054369 nan nan nan -2.053995 2.142602 -1.463768 2.737630 -3.861552 9.893929 -0.468743 -0.262811 -1.973873 -0.059627 3.203921 3.275713 2.157906 0.311179 -3.501519 -25.175516 1.376259 1.710380 -63.524517 -5.574981 17.624874 13.357869 -26.290094 -15.333700 5.083096 -18.020580 -16.138866 23.159419 1.056484 1.162074 64.714792 -1.006492 9.161596 -15.743326 27.271512 -28.887537 -6.865371 12.176644 -31.726060 
-264.112213 -282.342987 101.797699 142.362092 -0.553459 91.855533 2.466715 2.433355 5.428964 -1.390557 -3.959737 -3.990313 0.941221 12.634905 -6.561692 nan nan nan -1.418489 -2.967907 4.245730 5.856828 1.123188 -1.605810 5.390908 -4.343099 1.907588 nan nan nan -1.872073 2.195966 -1.749034 2.380169 -3.996656 10.036779 -0.406556 -0.233077 -1.463008 -0.400082 3.173308 3.765811 2.685136 0.500331 -3.900809 -25.144144 0.967842 1.930418 -63.498479 -5.716298 17.154764 13.258849 -26.268077 -15.419575 5.688642 -18.235819 -15.901416 22.865370 1.808829 1.600386 65.007904 -0.933713 8.887794 -15.658425 27.500045 -29.259623 -7.816220 12.729184 -32.696703 
-264.108978 -282.303864 101.797424 142.298493 -0.708431 91.964551 2.299786 2.384335 5.329545 -1.440086 -3.895915 -3.940417 0.994513 12.685071 -6.616222 nan nan nan -1.653428 -2.952293 4.173901 5.877834 1.111132 -1.594047 5.661316 -4.355214 2.079511 nan nan nan -1.965286 2.219497 -1.904535 2.324837 -4.009493 10.021081 -0.467659 -0.230215 -1.438009 -0.421936 3.021028 3.743370 2.748873 0.511539 -3.913412 -25.132013 1.046084 1.944213 -63.404083 -5.648124 17.179946 13.152600 -26.505453 -15.354952 5.622450 -18.141881 -15.951730 22.834889 1.697517 1.599987 65.011748 -1.061987 8.901587 -15.650995 27.845186 -29.115411 -7.805271 12.637407 -32.576011 
-264.104401 -282.272186 101.791496 142.314458 -0.857190 92.131083 2.098667 2.217740 5.115511 -1.421651 -3.841055 -3.715399 1.534888 12.929077 -6.919082 nan nan nan -1.850127 -2.916174 3.994479 5.900348 1.083655 -1.528986 5.775321 -4.468963 2.268216 nan nan nan -2.084336 2.236742 -1.915809 2.311679 -4.014140 9.878773 -0.530239 -0.276241 -1.522454 -0.323914 2.813722 3.415881 2.736176 0.455241 -3.728741 -25.116188 1.341234 1.824322 -63.347835 -5.702798 17.213319 13.089785 -26.436044 -15.312636 4.995534 -17.981376 -15.653530 22.863923 1.276544 1.437685 65.106796 -1.339820 8.938818 -15.852495 28.132553 -28.997017 -7.209156 12.566041 -32.313437 
-264.174622 -282.378754 101.596077 142.309868 -1.215670 93.030076 1.618800 1.559585 3.955657 -1.467059 -3.420816 -3.513438 2.312077 13.289885 -6.998019 nan nan nan -1.887862 -2.214854 2.933000 4.572527 1.996391 -2.634897 5.881718 -4.270086 1.021821 nan nan nan -2.830684 2.078827 -1.744975 2.532598 -4.085032 9.185942 -0.704437 -0.272924 -2.283201 0.677743 2.649260 2.356506 2.440206 0.530746 -2.422564 -24.164542 3.557198 1.224327 -64.683479 -6.250183 17.021987 13.825376 -25.800911 -14.226562 1.754053 -17.089273 -10.788053 24.156757 -0.341776 1.935161 65.850415 0.785213 11.540299 -16.169777 23.966359 -16.093648 -6.536113 10.926871 -12.110460 
-264.582031 -282.791412 101.838142 140.350600 -0.438614 92.703147 2.151373 2.278889 4.105286 -1.393822 -2.587110 -3.308043 2.187574 13.755986 -6.830763 nan nan nan -1.436607 -1.677981 1.380658 5.516022 1.256581 0.515727 5.922822 -3.728131 1.564586 nan nan nan -1.753626 2.156022 -0.964577 2.374861 -3.235130 9.280625 -0.660612 0.355240 -2.233753 0.457954 3.384149 3.307948 2.219273 0.480115 -3.774658 -24.834088 2.410101 1.045574 -64.686174 -6.135655 16.492430 14.570484 -25.529615 -15.739013 1.964953 -17.038965 -10.974346 23.930686 1.634683 2.833542 65.446523 1.539972 10.805515 -15.272199 23.108419 -17.285219 -5.982140 11.022453 -13.983217 
-264.576691 -282.780548 101.895943 140.215389 -0.383695 92.583826 2.214695 2.406912 4.310104 -1.397306 -2.629436 -3.326084 2.223856 13.812870 -6.874269 nan nan nan -1.476041 -1.811749 1.439331 5.812706 0.971799 0.949342 5.989373 -3.714547 1.890427 nan nan nan -1.625049 2.188647 -1.014041 2.339086 -3.170992 9.393432 -0.631866 0.408495 -2.135527 0.292276 3.436903 3.703499 2.215431 0.538011 -4.121562 -24.980466 1.982392 1.135947 -64.482224 -5.945378 16.365184 14.584759 -25.773711 -15.944362 2.073214 -17.174926 -11.353935 23.808639 2.177041 2.938649 65.306458 1.314997 10.695416 -14.534529 23.182494 -17.538309 -5.538207 11.216874 -15.316625 
-264.561523 -282.766144 101.890793 140.190993 -0.492323 92.576812 2.099880 2.368076 4.351028 -1.385042 -2.623923 -3.257804 2.532961 13.904587 -7.008941 nan nan nan -1.598615 -1.809435 1.498399 5.790787 1.013571 0.923866 6.047904 -3.724563 1.970514 nan nan nan -1.695156 2.223912 -1.033821 2.306091 -3.165231 9.486844 -0.661015 0.409783 -2.155792 0.214646 3.551324 3.738739 2.197504 0.653390 -4.191808 -24.914368 1.983684 1.088854 -64.371643 -5.860820 16.453529 14.510521 -26.019992 -15.694670 1.958161 -17.226058 -11.480988 23.783407 2.165585 2.870403 65.347671 1.175670 10.822462 -14.321189 23.366608 -17.629953 -5.207697 11.246568 -15.925306 
-264.544952 -282.685516 101.835960 140.168993 -0.383700 92.290661 2.263900 2.541023 4.760627 -1.425791 -2.755219 -3.390441 2.364730 13.768568 -6.952202 nan nan nan -1.693723 -1.904912 1.944096 6.007247 0.979488 1.026842 6.297206 -3.499748 2.119064 nan nan nan -1.634231 2.098598 -1.349370 2.355081 -3.241104 9.350549 -0.545010 0.595519 -1.461501 0.013353 3.627360 4.818326 2.331487 0.807337 -4.504052 -24.825057 1.159907 1.556308 -64.766313 -5.891394 16.080154 14.762276 -25.878124 -16.212697 2.665258 -17.535280 -12.137319 23.279408 3.044498 3.343254 65.540689 1.252098 10.318394 -14.143338 23.276117 -17.741464 -5.494931 11.495706 -16.487664 
-264.562683 -282.759827 102.021729 140.048368 -0.142087 89.999128 2.980252 2.550764 7.734883 -1.917613 -0.272538 -4.458751 2.310168 11.016232 -5.181714 nan nan nan -1.367947 -1.762053 4.279579 5.657703 -0.602367 2.045909 6.776034 -2.279099 1.088722 nan nan nan -0.580163 1.200776 3.352558 0.390229 -1.923338 4.634721 0.627719 -0.487265 0.568500 0.383535 3.985971 4.524740 2.767110 1.305725 -1.313211 -25.734012 1.765794 3.633702 -61.969633 -6.899814 9.620405 13.069220 -27.928217 -4.996378 -6.539686 -15.701052 -8.505383 24.516538 3.077657 5.966727 64.165111 4.410208 10.831636 -15.805618 21.053816 -12.721839 3.589895 10.557561 -14.323697 
-264.147003 -282.349731 101.970901 141.839422 -0.247828 89.831763 3.093394 2.099257 8.144916 -1.855756 -0.691255 -4.668217 1.837825 10.072541 -5.276137 nan nan nan -1.307460 -2.574997 6.218649 5.483017 -0.530852 -0.030899 6.928749 -2.523508 1.057449 nan nan nan -0.994116 0.829263 2.623594 0.497050 -2.551732 4.810979 0.937915 -1.089069 0.855812 0.454828 3.982032 4.773668 2.897136 1.071460 -1.478053 -25.960791 2.133850 3.783098 -61.566145 -6.902331 8.695239 12.469492 -28.045197 -3.823360 -7.349401 -15.808506 -8.064677 25.019149 2.404354 5.945684 63.635101 4.294079 10.651420 -15.896659 20.812805 -12.267883 4.120207 10.626875 -13.505073 
